<svg width="35" height="36" viewBox="0 0 35 36" fill="none" xmlns="http://www.w3.org/2000/svg">
  <path fill-rule="evenodd" clip-rule="evenodd" d="M2.53706 11.3512C4.33621 11.3512 5.0094 13.7362 5.0094 13.7362C5.0094 13.7362 5.91121 16.5195 7.75131 16.5195C9.12897 16.5195 9.43504 15.3825 9.5028 14.883L9.50801 14.8155L9.52067 14.679L9.52216 14.652C9.58546 13.992 9.03887 13.785 9.03887 13.785C8.49972 13.6012 8.02387 13.2637 7.61355 12.7852C6.47046 11.4525 7.08036 9.72224 8.4178 8.53424C7.79301 7.81049 6.97833 6.97574 6.26567 6.59624C4.70035 5.76074 3.45227 7.06424 3.3577 7.16624L3.33908 7.19249C3.23184 7.34024 3.12759 7.48874 3.02482 7.63949L3.01291 7.65749C2.90493 7.81724 2.79918 7.97849 2.69642 8.14199L2.67929 8.16899C2.59067 8.31224 2.50206 8.45474 2.41716 8.60024C2.21084 8.95164 2.01661 9.3101 1.83482 9.67499L1.79014 9.76724C1.71218 9.92539 1.63646 10.0847 1.56301 10.245L1.55259 10.2682C1.40024 10.6078 1.25819 10.952 1.12663 11.3002L1.08344 11.4142C1.0194 11.5875 0.958334 11.7615 0.899504 11.9377L0.877908 12.0052L0.834717 12.144C1.21674 11.7202 1.77004 11.3512 2.53706 11.3512Z" fill="white"/>
  <path fill-rule="evenodd" clip-rule="evenodd" d="M9.50213 19.2427C9.46366 18.8655 9.43758 18.487 9.42394 18.108C9.01587 18.283 8.57693 18.3733 8.1334 18.3735C4.73096 18.3735 4.64532 14.9925 3.44638 13.1265C2.1916 11.175 0.446809 13.2922 0.271809 14.43C0.264362 14.4847 0.255426 14.5275 0.247979 14.5605C0.229362 14.676 0.208511 14.7922 0.192128 14.9085L0.171277 15.0547C0.150426 15.1957 0.134043 15.3367 0.116915 15.4777C0.0895186 15.7125 0.0669251 15.9478 0.0491489 16.1835L0.0461702 16.2427C0.0342553 16.4115 0.0238298 16.5817 0.0178723 16.752C0.0148936 16.8045 0.0134043 16.8562 0.0119149 16.908C0.00595745 17.0737 0.00297872 17.2395 0.00148936 17.406L0 17.4682V17.5125C0 17.5852 0.00148936 17.6572 0.00297872 17.73C0.00297872 17.799 0.00297872 17.868 0.00595745 17.9362C0.00744681 18.0405 0.0119149 18.144 0.016383 18.2482L0.0208511 18.3742C0.295638 24.0765 3.27883 29.0625 7.70298 32.0557C6.28138 30.6472 5.4317 28.8607 5.4317 26.9175C5.4317 24.5002 6.74606 22.2427 8.83787 20.718C9.06754 20.5525 9.24991 20.3291 9.36664 20.0701C9.48337 19.8111 9.53036 19.5258 9.50287 19.2427" fill="white"/>
  <path fill-rule="evenodd" clip-rule="evenodd" d="M22.931 30.5985C22.1342 30.93 20.9762 31.305 19.6596 31.3965C19.4613 31.4099 19.2626 31.4166 19.0638 31.4168C16.8618 31.4168 13.9948 30.5528 11.7883 26.8673L11.4986 26.3858C11.1658 26.8898 10.9788 27.453 10.9788 28.0658C10.9788 30.5648 13.9546 32.832 17.5283 32.832C18.4621 32.832 19.5658 32.7233 20.3678 32.4743C19.5464 32.9895 17.8954 33.4733 16.4612 33.4733C12.3617 33.4733 8.9347 30.7358 8.9347 27.4883C8.9347 26.397 9.30853 25.2645 9.96236 24.3188C10.0902 24.132 10.174 23.9183 10.2073 23.6939C10.2405 23.4696 10.2225 23.2405 10.1545 23.0243C8.27044 24.1253 7.11768 25.803 7.11768 27.8123C7.11768 30.906 9.85363 33.552 13.7245 34.632C13.9434 34.68 14.1646 34.722 14.3872 34.761C17.1835 35.232 19.6655 34.731 21.3478 33.114C22.0701 32.4203 22.5929 31.569 22.931 30.5985Z" fill="white"/>
  <path fill-rule="evenodd" clip-rule="evenodd" d="M30.5692 6.09229C32.4519 8.75063 33.4615 11.9357 33.4563 15.201C33.4563 21.0585 30.272 26.1675 25.553 28.8713L25.5195 28.9013C25.5195 28.8615 25.518 28.8263 25.5448 28.6665C25.6608 27.9691 25.9277 27.3059 26.3267 26.724C27.6597 24.801 28.5474 21.861 26.2746 18.0668C25.022 15.9743 22.4008 13.023 17.0309 10.848C16.3371 10.5675 15.6331 10.3133 14.9204 10.086L14.6449 9.99904C14.6337 9.99604 14.6226 9.99154 14.6121 9.98929C14.428 9.93261 14.2433 9.87761 14.0581 9.82429L14.0313 9.81679C13.8511 9.76429 13.6761 9.71629 13.5078 9.67054L13.4929 9.66679C13.4133 9.64545 13.3336 9.62445 13.2538 9.60379L13.2419 9.60079C13.0805 9.55861 12.9186 9.51811 12.7564 9.47929C12.6211 9.4467 12.4855 9.41495 12.3498 9.38404L12.3193 9.37654C12.2593 9.36319 12.1992 9.35019 12.1391 9.33754L11.9693 9.30003L11.938 9.29404L11.8114 9.26854L11.7801 9.26103C11.7266 9.25002 11.673 9.23952 11.6193 9.22954C11.585 9.22204 11.5515 9.21679 11.5202 9.21079C11.4742 9.2015 11.428 9.19275 11.3817 9.18454L11.3594 9.25954C11.3519 9.28718 11.344 9.31469 11.3355 9.34204L11.3274 9.37579L11.3117 9.43129L11.3005 9.47104C11.2952 9.49026 11.29 9.50951 11.2849 9.52879L11.2737 9.57004L11.2566 9.63304L11.2447 9.67654L11.2261 9.74629L11.2149 9.78979L11.1926 9.87379C11.1881 9.89179 11.1836 9.91054 11.1777 9.92929L11.1531 10.029C11.1492 10.0459 11.145 10.0626 11.1404 10.0793L11.1203 10.1603C11.1159 10.179 11.1114 10.1978 11.1054 10.2173C11.1002 10.2435 11.0935 10.269 11.0876 10.2953L11.0719 10.3605C11.0661 10.3861 11.0599 10.4116 11.0533 10.437L11.0377 10.506C11.0302 10.5323 11.025 10.5585 11.0191 10.5863C11.0132 10.6097 11.0077 10.6332 11.0027 10.6568C10.9952 10.6853 10.9893 10.7145 10.9826 10.7438L10.9677 10.8113L10.9446 10.9133C10.9385 10.9441 10.932 10.9749 10.9252 11.0055C10.9155 11.0479 10.9064 11.0904 10.8977 11.133L10.882 11.2058L10.8619 11.3048L10.8448 11.3873L10.8262 11.4795L10.8091 11.568C10.8016 11.598 10.7964 11.6303 10.7904 11.6618L10.7733 11.751L10.7547 11.8485L10.7376 11.94C10.7317 11.9739 10.7255 12.0076 10.7189 12.0413C10.7066 12.1105 10.6944 12.1798 10.6825 12.249L10.6661 12.3413L10.6363 12.5213L10.6214 12.6113L10.6028 12.7275C10.5974 12.7595 10.5924 12.7915 10.5879 12.8235L10.57 12.936L10.5551 13.038L10.5387 13.1498L10.5238 13.254L10.5082 13.3695C10.5029 13.4037 10.4979 13.438 10.4933 13.4723L10.4784 13.5945L10.465 13.6958L10.4479 13.8323L10.4375 13.9215C10.3986 14.2497 10.3651 14.5785 10.3369 14.9078L10.3354 14.934C10.3265 15.0353 10.3191 15.1365 10.3116 15.2415L10.3109 15.249C10.3034 15.3503 10.296 15.453 10.29 15.5565L10.2893 15.5708C10.2833 15.6735 10.2774 15.777 10.2729 15.882L10.2721 15.8865C10.2461 16.431 10.2349 17.0063 10.2453 17.6033C10.258 18.3383 10.3049 19.1078 10.3972 19.8923L10.4196 20.0828C10.5482 21.1215 10.7639 22.1475 11.0645 23.1495C11.2916 23.8433 11.6572 24.813 12.0028 25.5218C12.1577 25.8293 12.3222 26.1345 12.5017 26.4345C14.1504 29.187 16.348 30.579 19.04 30.5798C19.2254 30.5798 19.4124 30.5723 19.603 30.5595C21.2189 30.447 22.5668 29.8748 23.2147 29.5515C24.0957 25.146 21.7201 18.8805 16.7695 13.6568C16.0826 12.9315 15.3593 12.2421 14.6025 11.5913C16.2504 12.8363 17.0822 13.5105 18.0392 14.52C24.8009 21.6548 26.9217 30.669 22.7768 34.6538C22.1625 35.2404 21.4382 35.6979 20.6463 35.9993C21.6978 35.6985 22.6309 35.1848 23.4016 34.4438C23.6474 34.2068 23.8708 33.9518 24.0733 33.681C30.3584 31.0425 34.7759 24.798 34.7759 17.5125C34.7818 13.3203 33.2885 9.26622 30.5692 6.09229Z" fill="white"/>
  <path fill-rule="evenodd" clip-rule="evenodd" d="M26.0548 6.10725C26.442 5.88675 26.9931 5.93475 27.4362 6.26925C27.8785 6.603 28.0803 7.12125 27.9791 7.5585C27.5918 7.779 27.0408 7.73025 26.5984 7.3965C26.1553 7.06275 25.9543 6.5445 26.0548 6.1065V6.10725ZM6.46001 5.9385C7.41618 6.255 8.49746 7.167 9.26895 7.914C9.76 7.61882 10.2936 7.40224 10.8506 7.272C10.4239 6.381 9.85203 4.965 9.97863 3.975C10.2333 1.965 12.4189 1.8105 12.4189 1.8105C12.4189 1.8105 10.4135 2.24475 10.5423 4.119C10.6049 5.028 11.3764 6.35925 11.8813 7.1415C13.1249 7.1235 14.2069 7.62675 14.6962 8.58C14.7453 8.676 14.7855 8.775 14.8213 8.8755H14.8228C14.8228 8.8755 14.9769 9.21 15.2398 9.30675C15.9422 9.53351 16.6364 9.78516 17.3212 10.0613C18.3611 10.4803 19.3739 10.9648 20.3535 11.5118C20.5159 11.6033 20.6752 11.3865 20.5397 11.2568C15.6732 6.55125 19.1099 4.7145 19.1099 4.7145C17.351 7.27725 20.2902 9.12825 23.6651 11.04C26.6386 12.7238 28.7438 14.5478 31.0464 13.32C32.1947 12.708 31.3927 11.346 30.8751 10.5923C30.4864 10.0253 30.222 9.67725 29.875 8.9295C29.6996 8.55939 29.6493 8.14158 29.732 7.74C29.8534 7.17975 29.6613 6.51975 29.2405 5.85C28.9278 5.3535 28.3261 4.82925 27.8778 4.4775C27.587 4.25071 27.3306 3.98239 27.1167 3.681C25.5164 1.4115 21.3648 0.462002 21.3648 0.462002V0.460502C20.0612 0.153947 18.7269 -0.000568305 17.3882 1.57056e-06C14.6068 1.57056e-06 11.9781 0.659252 9.64724 1.8285H9.6465C8.40658 2.45086 7.24485 3.22005 6.18597 4.11975L6.05192 4.23225C5.79501 4.452 5.54554 4.68075 5.3065 4.9185L5.30054 4.9245C5.16129 5.061 5.02352 5.199 4.88873 5.34L4.88278 5.346C4.61469 5.625 4.35703 5.913 4.10831 6.2085L4.07778 6.24525L4.01001 6.32925C4.50522 5.904 5.29831 5.553 6.46001 5.93775" fill="white"/>
</svg>
